<svg width="21" height="17" viewBox="0 0 21 17" fill="none" xmlns="http://www.w3.org/2000/svg">
<path d="M6.83806 16.8708C8.37373 16.8809 9.89614 16.5906 11.3169 16.0167C12.7377 15.4428 14.0285 14.5968 15.1144 13.5278C16.2003 12.4587 17.0597 11.188 17.6426 9.78925C18.2255 8.39054 18.5204 6.89178 18.5101 5.37995C18.5101 5.20551 18.5101 5.03105 18.4975 4.858C19.3009 4.28613 19.9943 3.57776 20.545 2.76612C19.7964 3.09242 19.0025 3.30661 18.1895 3.40158C19.0461 2.89655 19.6872 2.10252 19.9937 1.16709C19.1882 1.63762 18.3069 1.96912 17.3879 2.14727C16.7696 1.49864 15.9512 1.06889 15.0597 0.924621C14.1681 0.780354 13.253 0.92962 12.4563 1.34929C11.6596 1.76897 11.0258 2.43563 10.6531 3.24593C10.2803 4.05624 10.1895 4.96495 10.3946 5.83126C8.76315 5.75084 7.16714 5.3336 5.71014 4.60663C4.25314 3.87966 2.96769 2.85922 1.93722 1.6115C1.41173 2.50015 1.25008 3.55258 1.48523 4.55445C1.72038 5.55632 2.33463 6.43227 3.20286 7.00388C2.55094 6.98479 1.91329 6.81148 1.34378 6.49858C1.34378 6.51519 1.34378 6.53317 1.34378 6.54978C1.34417 7.48238 1.67216 8.38615 2.27218 9.10782C2.8722 9.82949 3.70732 10.3246 4.63587 10.5093C4.03156 10.6717 3.39743 10.6954 2.78237 10.5785C3.04456 11.3813 3.555 12.0833 4.24233 12.5864C4.92965 13.0896 5.75952 13.3687 6.61588 13.3848C5.16226 14.5077 3.36728 15.1167 1.51956 15.1139C1.19062 15.1144 0.861906 15.096 0.535156 15.0586C2.41169 16.2448 4.59531 16.8744 6.8254 16.8722" fill="#A4A4AB"/>
</svg>
